# xmcd CD database file
#
# Track frame offsets:
#	150
#	27076
#	62731
#	82748
#	124244
#	147916
#	168491
#
# Disc length: 2514 seconds
#
# Revision: 0
# Processed by: cddbd v1.5.2PL0 Copyright (c) Steve Scherf et al.
# Submitted via: CDex 1.51
#
DISCID=5509d007
DTITLE=Belair - Monday Dream
DYEAR=2010
DGENRE=Jazz
TTITLE0=Salto Del Angel
TTITLE1=Monday Dream
TTITLE2=Everything
TTITLE3=Molino
TTITLE4=Paris Volcano Dance
TTITLE5=Stick Dance
TTITLE6=Holi
EXTD=YEAR: 2010
EXTT0=
EXTT1=
EXTT2=
EXTT3=
EXTT4=
EXTT5=
EXTT6=
PLAYORDER=
